<?xml version="1.0"?>
<svg xmlns="http://www.w3.org/2000/svg" id="_x33_0" enable-background="new 0 0 64 64" height="512px" viewBox="0 0 64 64" width="512px"><g><g><path d="m27 5h8v2h-8z" data-original="#000000" class="active-path" data-old_color="#000000" fill="#37474F"/><path d="m35 53h-8c-1.103 0-2 .897-2 2v2c0 1.103.897 2 2 2h8c1.103 0 2-.897 2-2v-2c0-1.103-.897-2-2-2zm-8 4v-2h8l.001 2z" data-original="#000000" class="active-path" data-old_color="#000000" fill="#37474F"/><path d="m55 11h2v2h-2z" data-original="#000000" class="active-path" data-old_color="#000000" fill="#37474F"/><path d="m51 11h2v2h-2z" data-original="#000000" class="active-path" data-old_color="#000000" fill="#37474F"/><path d="m47 11h2v2h-2z" data-original="#000000" class="active-path" data-old_color="#000000" fill="#37474F"/><path d="m51.121 22.293 3.293-3.293h6.586c1.103 0 2-.897 2-2v-10c0-1.103-.897-2-2-2h-12.674c-1.148-2.419-3.607-4-6.326-4h-22c-3.86 0-7 3.14-7 7v13h-2v2.063c0 .374-.227.708-.604.863-.35.144-.745.068-1.009-.195l-1.459-1.458-5.656 5.656 1.458 1.459c.263.263.339.659.184 1.035-.143.35-.477.577-.851.577h-2.063v8h2.063c.374 0 .708.227.863.604.145.35.068.745-.195 1.009l-1.458 1.459 5.656 5.656 1.459-1.458c.264-.264.66-.339 1.035-.185.35.144.577.478.577.852v2.063h2v7c0 3.859 3.14 7 7 7h22c1.958 0 3.728-.81 5-2.111v2.111h6v-2.572c0-.513.305-.971.778-1.168.534-.223 1.143-.102 1.55.308l1.74 1.749 4.248-4.247-1.782-1.775c-.389-.388-.503-.964-.292-1.47.208-.502.693-.825 1.236-.825h2.522v-6h-2.526c-.541 0-1.024-.322-1.232-.821-.211-.508-.097-1.086.293-1.475l1.78-1.773-4.247-4.247-1.776 1.784c-.386.389-.964.503-1.467.292-.501-.209-.825-.696-.825-1.238v-2.522h-4v-14.036c.749.13 1.565-.115 2.121-.671zm9.879-15.293v10h-7.414l-3.879 3.879c-.238.238-.707.044-.707-.293v-3.586h-6v-10zm-48 33.649c-2.343-.835-4-3.085-4-5.649s1.657-4.814 4-5.649zm2-29.649h26v5.76c-1.757-2.281-4.508-3.76-7.604-3.76h-4.792c-5.296 0-9.604 4.308-9.604 9.604 0 1.034.166 2.056.493 3.037l.098.295c-.367.605-.591 1.306-.591 2.064v2c0 2.206 1.794 4 4 4h.589c.628 1.544 1.724 2.846 3.112 3.735l-.47 1.411-2.966.659c-3.689.82-6.265 4.031-6.265 7.81v1.385h-2zm10-4v-4h12v4c0 1.103-.897 2-2 2h-8c-1.103 0-2-.897-2-2zm13.816 30c-.223-.626-.64-1.158-1.189-1.514.318-.467.58-.966.79-1.486h.583c.732 0 1.409-.212 2-.556v1.556c0 1.103-.897 2-2 2zm-7.816 7.984-2.91-5.092.43-1.29c.782.255 1.614.398 2.48.398.06 0 .12-.011.18-.013.337.96 1.141 1.697 2.144 1.929zm-10-16.984c0-1.103.897-2 2-2v5c0 .339.028.672.069 1h-.069c-1.103 0-2-.897-2-2zm3.004-4h-1.004c-.632 0-1.222.161-1.754.423-.147-.596-.246-1.202-.246-1.819 0-4.193 3.411-7.604 7.604-7.604h4.792c4.193 0 7.604 3.411 7.604 7.604 0 .617-.099 1.223-.246 1.819-.532-.262-1.122-.423-1.754-.423h-1.413c-.386-.397-.833-.741-1.348-.998l-1.251-.631c-.056-1.26-.772-2.381-1.909-2.948l-.633-.317-.895 1.789.634.317c.503.25.815.754.815 1.316 0 .811-.661 1.472-1.472 1.472zm9.996 15c-.551 0-1-.448-1-1s.449-1 1-1h2c.551 0 1 .448 1 1s-.449 1-1 1zm-9-13h6.528c1.245 0 2.33-.664 2.943-1.651l.871.44c1.023.511 1.658 1.539 1.658 2.683v3.528c0 1.495-.547 2.898-1.536 4h-1.464c-1.297 0-2.394.832-2.812 1.987-.063.001-.125.013-.188.013-3.309 0-6-2.691-6-6zm14 6h-.069c.041-.33.069-.662.069-1v-3.528c0-.509-.081-1.003-.224-1.472h.224c1.103 0 2 .897 2 2v2c0 1.103-.897 2-2 2zm-20 15.615c0-2.834 1.932-5.243 4.698-5.856l2.799-.622 3.503 6.129v1.734h-11zm13-.349 3.502-6.129 2.799.622c2.767.613 4.699 3.022 4.699 5.856v1.385h-11zm6.735-7.46-.3-.067c.161-.225.286-.474.38-.739h.185c2.206 0 4-1.794 4-4v-5-2c0-.758-.224-1.459-.591-2.064l.098-.295c.327-.981.493-2.003.493-3.037 0-1.333-.274-2.603-.767-3.758.236.099.495.154.767.154h4v30h-2v-1.385c0-3.779-2.576-6.99-6.265-7.809zm10.265 13.01c.314.112.648.184 1 .184 1.654 0 3-1.346 3-3s-1.346-3-3-3c-.352 0-.686.072-1 .184v-2.073c.328-.067.661-.111 1-.111 2.757 0 5 2.243 5 5s-2.243 5-5 5c-.339 0-.672-.044-1-.111zm0-2.816c0-.552.449-1 1-1s1 .448 1 1-.449 1-1 1-1-.448-1-1zm-2.999-45h-3.001c-1.103 0-2 .897-2 2v2h-2.556c.344-.591.556-1.268.556-2v-4h3c1.6 0 3.073.765 4.001 2zm-26.001-2h3v4c0 .732.212 1.409.556 2h-8.556v-1c0-2.757 2.243-5 5-5zm-8.838 41.227c-1.098-.453-2.35-.209-3.188.628l-.045.045-2.829-2.828.044-.045c.837-.837 1.084-2.089.62-3.209-.452-1.105-1.513-1.818-2.701-1.818h-.063v-4h.063c1.188 0 2.249-.713 2.71-1.839.455-1.1.208-2.351-.628-3.188l-.045-.045 2.828-2.828.045.044c.837.837 2.089 1.086 3.209.62 1.105-.452 1.818-1.513 1.818-2.701v4.196c-3.474.901-6 4.083-6 7.741s2.526 6.84 6 7.741v4.195c0-1.187-.713-2.248-1.838-2.709zm30.838 16.773h-22c-2.757 0-5-2.243-5-5v-5h32v5c0 2.757-2.243 5-5 5zm9-22v.522c0 1.352.806 2.562 2.055 3.083 1.258.526 2.693.239 3.655-.728l.361-.362 1.413 1.413-.36.358c-.968.964-1.253 2.401-.728 3.661.519 1.247 1.728 2.053 3.078 2.053h.526v2h-.522c-1.353 0-2.563.807-3.083 2.054-.525 1.259-.24 2.693.727 3.657l.363.36-1.413 1.413-.326-.328c-.984-.986-2.451-1.279-3.737-.742-1.22.508-2.009 1.691-2.009 3.014v.572h-2v-.572c0-.629-.192-1.241-.529-1.765.228-.552.383-1.141.463-1.753.352.054.707.09 1.066.09 3.86 0 7-3.141 7-7s-3.14-7-7-7c-.337 0-.67.037-1 .085v-4.085z" data-original="#000000" class="active-path" data-old_color="#000000" fill="#37474F"/></g></g> </svg>
