<?xml version="1.0"?>
<svg xmlns="http://www.w3.org/2000/svg" height="512px" viewBox="0 0 496 496" width="512px"><g><path d="m128 80c4.414062 0 8 3.585938 8 8h16c0-10.414062-6.710938-19.214844-16-22.527344v-9.472656h-16v9.472656c-9.289062 3.3125-16 12.113282-16 22.527344 0 13.230469 10.769531 24 24 24 4.414062 0 8 3.585938 8 8s-3.585938 8-8 8-8-3.585938-8-8h-16c0 10.414062 6.710938 19.214844 16 22.527344v9.472656h16v-9.472656c9.289062-3.3125 16-12.113282 16-22.527344 0-13.230469-10.769531-24-24-24-4.414062 0-8-3.585938-8-8s3.585938-8 8-8zm0 0" data-original="#000000" class="active-path" data-old_color="#000000" fill="#37474F"/><path d="m128 48c30.871094 0 56 25.128906 56 56 0 12.496094-4.078125 24.359375-11.808594 34.296875l12.640625 9.816406c9.929688-12.769531 15.167969-28.015625 15.167969-44.113281 0-39.703125-32.296875-72-72-72-16.097656 0-31.34375 5.238281-44.113281 15.167969l9.816406 12.640625c9.9375-7.730469 21.800781-11.808594 34.296875-11.808594zm0 0" data-original="#000000" class="active-path" data-old_color="#000000" fill="#37474F"/><path d="m128 176c16.097656 0 31.34375-5.238281 44.113281-15.167969l-9.816406-12.640625c-9.9375 7.730469-21.800781 11.808594-34.296875 11.808594-30.871094 0-56-25.128906-56-56 0-12.496094 4.078125-24.359375 11.808594-34.296875l-12.640625-9.816406c-9.929688 12.769531-15.167969 28.015625-15.167969 44.113281 0 39.703125 32.296875 72 72 72zm0 0" data-original="#000000" class="active-path" data-old_color="#000000" fill="#37474F"/><path d="m188 320c-15.441406 0-28 12.558594-28 28v40c0 15.441406 12.558594 28 28 28s28-12.558594 28-28v-40c0-15.441406-12.558594-28-28-28zm12 68c0 6.617188-5.382812 12-12 12s-12-5.382812-12-12v-40c0-6.617188 5.382812-12 12-12s12 5.382812 12 12zm0 0" data-original="#000000" class="active-path" data-old_color="#000000" fill="#37474F"/><path d="m48 280h16v16h-16zm0 0" data-original="#000000" class="active-path" data-old_color="#000000" fill="#37474F"/><path d="m88 280h16v16h-16zm0 0" data-original="#000000" class="active-path" data-old_color="#000000" fill="#37474F"/><path d="m128 280h16v16h-16zm0 0" data-original="#000000" class="active-path" data-old_color="#000000" fill="#37474F"/><path d="m168 280h16v16h-16zm0 0" data-original="#000000" class="active-path" data-old_color="#000000" fill="#37474F"/><path d="m48 320h16v16h-16zm0 0" data-original="#000000" class="active-path" data-old_color="#000000" fill="#37474F"/><path d="m88 320h16v16h-16zm0 0" data-original="#000000" class="active-path" data-old_color="#000000" fill="#37474F"/><path d="m128 320h16v16h-16zm0 0" data-original="#000000" class="active-path" data-old_color="#000000" fill="#37474F"/><path d="m48 360h16v16h-16zm0 0" data-original="#000000" class="active-path" data-old_color="#000000" fill="#37474F"/><path d="m88 360h16v16h-16zm0 0" data-original="#000000" class="active-path" data-old_color="#000000" fill="#37474F"/><path d="m128 360h16v16h-16zm0 0" data-original="#000000" class="active-path" data-old_color="#000000" fill="#37474F"/><path d="m48 400h16v16h-16zm0 0" data-original="#000000" class="active-path" data-old_color="#000000" fill="#37474F"/><path d="m88 400h16v16h-16zm0 0" data-original="#000000" class="active-path" data-old_color="#000000" fill="#37474F"/><path d="m128 400h16v16h-16zm0 0" data-original="#000000" class="active-path" data-old_color="#000000" fill="#37474F"/><path d="m368.460938 156.269531 55.046874-103.996093 14.140626 7.484374-55.046876 103.996094zm0 0" data-original="#000000" class="active-path" data-old_color="#000000" fill="#37474F"/><path d="m424 128h16v16h-16zm0 0" data-original="#000000" class="active-path" data-old_color="#000000" fill="#37474F"/><path d="m368 72h16v16h-16zm0 0" data-original="#000000" class="active-path" data-old_color="#000000" fill="#37474F"/><path d="m496 240h-248v-56c0-13.230469-10.769531-24-24-24h-8.503906c10.398437-16.183594 16.503906-35.375 16.503906-56 0-8.273438-1.070312-16.28125-2.902344-24h45.140625l28.089844 84.265625 78.496094-148.265625h83.175781v-16h-92.824219l-65.496093 123.734375-19.910157-59.734375h-61.792969c-15.703124-37.542969-52.800781-64-95.976562-64-57.34375 0-104 46.65625-104 104 0 20.625 6.113281 39.816406 16.503906 56h-16.503906c-13.230469 0-24 10.769531-24 24v288c0 13.230469 10.769531 24 24 24h200c13.230469 0 24-10.769531 24-24v-8h248zm-248 56.640625c27.089844 3.902344 48 27.207031 48 55.359375s-20.910156 51.457031-48 55.359375zm-120-280.640625c48.519531 0 88 39.480469 88 88s-39.480469 88-88 88-88-39.480469-88-88 39.480469-88 88-88zm-75.054688 464 8-16h126.109376l8 16zm179.054688-8c0 4.414062-3.585938 8-8 8h-11.054688l-16-32h-145.890624l-16 32h-11.054688c-4.414062 0-8-3.585938-8-8v-288c0-4.414062 3.585938-8 8-8h29.128906c5.878906 6.113281 12.496094 11.464844 19.703125 16h-40.832031v64h184v-64h-32.832031c7.207031-4.535156 13.824219-9.886719 19.703125-16h21.128906c4.414062 0 8 3.585938 8 8zm-32-264v32h-152v-32zm280 240h-232v-24.472656c35.945312-3.992188 64-34.527344 64-71.527344s-28.054688-67.535156-64-71.527344v-24.472656h232zm0 0" data-original="#000000" class="active-path" data-old_color="#000000" fill="#37474F"/><path d="m448 312h16v-40h-40v16h24zm0 0" data-original="#000000" class="active-path" data-old_color="#000000" fill="#37474F"/><path d="m464 392h-16v24h-24v16h40zm0 0" data-original="#000000" class="active-path" data-old_color="#000000" fill="#37474F"/></g> </svg>
